<svg width="256" height="256" viewBox="0 0 256 256" fill="none" xmlns="http://www.w3.org/2000/svg">
<g clip-path="url(#clip0)">
<rect width="256" height="256" fill="white"/>
<path d="M19.7275 237H31.6016C37.8975 237 41.6914 233.842 41.6914 228.653V228.612C41.6914 224.716 38.9639 221.824 34.7598 221.394V221.312C37.877 220.86 40.2354 217.969 40.2354 214.852V214.811C40.2354 210.34 36.79 207.407 31.54 207.407H19.7275V237ZM30.4326 211.16C33.7549 211.16 35.6621 212.657 35.6621 215.364V215.405C35.6621 218.379 33.4678 220.02 29.4072 220.02H24.3213V211.16H30.4326ZM30.3506 223.567C34.7393 223.567 36.9951 225.208 36.9951 228.387V228.428C36.9951 231.586 34.7803 233.247 30.6582 233.247H24.3213V223.567H30.3506ZM45.6494 237H50.2432V207.407H45.6494V237ZM68.4336 237.492C76.4521 237.492 81.1895 232.714 81.1895 224.695V221.66H68.8848V225.413H76.6572V225.905C76.5957 230.396 73.2734 233.432 68.4746 233.432C62.835 233.432 59.3076 229.125 59.3076 222.05V222.029C59.3076 215.098 62.7324 210.976 68.3926 210.976C72.248 210.976 74.9346 212.965 76.1855 216.39L76.2471 216.615H80.9639L80.8818 216.246C79.6514 210.914 75.3037 206.915 68.3721 206.915C59.9639 206.915 54.6318 212.719 54.6318 222.05V222.07C54.6318 231.586 59.9639 237.492 68.4336 237.492ZM106.947 237.492C114.966 237.492 119.703 232.714 119.703 224.695V221.66H107.398V225.413H115.171V225.905C115.109 230.396 111.787 233.432 106.988 233.432C101.349 233.432 97.8213 229.125 97.8213 222.05V222.029C97.8213 215.098 101.246 210.976 106.906 210.976C110.762 210.976 113.448 212.965 114.699 216.39L114.761 216.615H119.478L119.396 216.246C118.165 210.914 113.817 206.915 106.886 206.915C98.4775 206.915 93.1455 212.719 93.1455 222.05V222.07C93.1455 231.586 98.4775 237.492 106.947 237.492ZM136.991 237.492C145.543 237.492 150.854 231.606 150.854 222.214V222.173C150.854 212.801 145.522 206.915 136.991 206.915C128.48 206.915 123.128 212.78 123.128 222.173V222.214C123.128 231.627 128.46 237.492 136.991 237.492ZM136.991 233.432C131.372 233.432 127.804 229.104 127.804 222.214V222.173C127.804 215.282 131.393 210.976 136.991 210.976C142.61 210.976 146.158 215.303 146.158 222.173V222.214C146.158 229.043 142.672 233.432 136.991 233.432ZM168.04 237.492C176.592 237.492 181.903 231.606 181.903 222.214V222.173C181.903 212.801 176.571 206.915 168.04 206.915C159.529 206.915 154.177 212.78 154.177 222.173V222.214C154.177 231.627 159.509 237.492 168.04 237.492ZM168.04 233.432C162.421 233.432 158.853 229.104 158.853 222.214V222.173C158.853 215.282 162.441 210.976 168.04 210.976C173.659 210.976 177.207 215.303 177.207 222.173V222.214C177.207 229.043 173.721 233.432 168.04 233.432ZM186.292 237H196.73C205.549 237 210.737 231.504 210.737 222.152V222.111C210.737 212.801 205.508 207.407 196.73 207.407H186.292V237ZM190.886 233.021V211.365H196.3C202.534 211.365 206.041 215.2 206.041 222.152V222.193C206.041 229.187 202.575 233.021 196.3 233.021H190.886ZM225.216 237.492C232.229 237.492 236.495 234.067 236.495 228.674V228.653C236.495 224.08 233.87 221.599 227.759 220.307L224.519 219.63C220.827 218.83 219.146 217.477 219.146 215.262V215.241C219.146 212.657 221.483 210.914 225.154 210.894C228.661 210.894 231.04 212.555 231.45 215.303L231.471 215.59H235.941L235.921 215.241C235.613 210.278 231.389 206.915 225.216 206.915C218.961 206.915 214.511 210.381 214.49 215.426V215.446C214.49 219.835 217.3 222.501 223.104 223.731L226.323 224.408C230.24 225.27 231.86 226.562 231.86 228.94V228.961C231.86 231.729 229.358 233.514 225.4 233.514C221.442 233.514 218.715 231.812 218.305 229.084L218.264 228.817H213.793L213.813 229.125C214.183 234.334 218.571 237.492 225.216 237.492Z" fill="#0D3C4E"/>
<path d="M201.844 99.2266H132.969L127.645 124.828H163.555L162.875 127.66C158.684 146.465 142.371 159.492 121.867 159.492C97.1719 159.492 83.6914 142.5 83.6914 116.672C83.6914 82.1211 101.363 49.043 136.367 49.043C156.418 49.043 169.559 60.5977 170.691 77.4766H203.996C204.109 76.6836 204.109 75.5508 204.109 74.7578C203.656 44.5117 177.148 19.8164 137.047 19.8164C80.7461 19.8164 48.8008 66.6016 48.8008 118.031C48.8008 160.285 75.875 188.719 119.035 188.719C160.496 188.719 189.496 164.25 197.766 120.07L201.844 99.2266Z" fill="#C7553C"/>
<path d="M201.844 99.2266L202.825 99.4186L203.058 98.2266H201.844V99.2266ZM132.969 99.2266V98.2266H132.155L131.99 99.023L132.969 99.2266ZM127.645 124.828L126.665 124.625L126.415 125.828H127.645V124.828ZM163.555 124.828L164.527 125.061L164.823 123.828H163.555V124.828ZM162.875 127.66L161.903 127.427L161.901 127.435L161.899 127.443L162.875 127.66ZM170.691 77.4766L169.694 77.5435L169.756 78.4766H170.691V77.4766ZM203.996 77.4766V78.4766H204.863L204.986 77.618L203.996 77.4766ZM204.109 74.7578H205.109V74.7503L205.109 74.7428L204.109 74.7578ZM197.766 120.07L196.784 119.878L196.783 119.886L197.766 120.07ZM201.844 98.2266H132.969V100.227H201.844V98.2266ZM131.99 99.023L126.665 124.625L128.624 125.032L133.948 99.4302L131.99 99.023ZM127.645 125.828H163.555V123.828H127.645V125.828ZM162.582 124.595L161.903 127.427L163.847 127.894L164.527 125.061L162.582 124.595ZM161.899 127.443C157.814 145.771 141.923 158.492 121.867 158.492V160.492C142.819 160.492 159.553 147.159 163.851 127.878L161.899 127.443ZM121.867 158.492C109.764 158.492 100.514 154.338 94.2754 147.114C88.0189 139.87 84.6914 129.422 84.6914 116.672H82.6914C82.6914 129.749 86.1042 140.712 92.7617 148.421C99.4368 156.15 109.275 160.492 121.867 160.492V158.492ZM84.6914 116.672C84.6914 99.55 89.0728 82.8563 97.7226 70.4735C106.351 58.1215 119.228 50.043 136.367 50.043V48.043C118.502 48.043 105.042 56.5035 96.083 69.3282C87.146 82.1222 82.6914 99.2429 82.6914 116.672H84.6914ZM136.367 50.043C146.202 50.043 154.258 52.875 159.979 57.6949C165.693 62.5086 169.144 69.3593 169.694 77.5435L171.689 77.4096C171.106 68.7149 167.42 61.3488 161.268 56.1654C155.123 50.9883 146.583 48.043 136.367 48.043V50.043ZM170.691 78.4766H203.996V76.4766H170.691V78.4766ZM204.986 77.618C205.112 76.7393 205.109 75.5264 205.109 74.7578H203.109C203.109 75.5752 203.107 76.6279 203.006 77.3351L204.986 77.618ZM205.109 74.7428C204.646 43.8193 177.554 18.8164 137.047 18.8164V20.8164C176.743 20.8164 202.667 45.2041 203.109 74.7728L205.109 74.7428ZM137.047 18.8164C108.592 18.8164 86.2507 30.6506 71.0411 48.9995C55.8474 67.3294 47.8008 92.1188 47.8008 118.031H49.8008C49.8008 92.514 57.7269 68.196 72.5809 50.2759C87.4192 32.3748 109.201 20.8164 137.047 20.8164V18.8164ZM47.8008 118.031C47.8008 139.374 54.6422 157.313 67.0193 169.921C79.3989 182.531 97.2294 189.719 119.035 189.719V187.719C97.6807 187.719 80.3941 180.69 68.4465 168.52C56.4965 156.347 49.8008 138.942 49.8008 118.031H47.8008ZM119.035 189.719C139.969 189.719 157.827 183.538 171.501 171.718C185.172 159.902 194.581 142.52 198.749 120.254L196.783 119.886C192.681 141.8 183.455 158.742 170.193 170.205C156.935 181.665 139.563 187.719 119.035 187.719V189.719ZM198.747 120.262L202.825 99.4186L200.862 99.0346L196.784 119.878L198.747 120.262Z" fill="#B43726"/>
</g>
<defs>
<clipPath id="clip0">
<rect width="256" height="256" fill="white"/>
</clipPath>
</defs>
</svg>
